
        <svg xmlns="http://www.w3.org/2000/svg" xmlns:xlink="http://www.w3.org/1999/xlink" version="1.1" width="3168.5393258426966" 
        height="1011.2359550561798" viewBox="0 0 3168.5393258426966 1011.2359550561798">
 <rect width="100%" height="100%" fill="#12141d00"/>
			
			<g transform="scale(8.426966292134832) translate(10, 10)">
				<defs id="SvgjsDefs1755"></defs><g id="SvgjsG1756" featureKey="symbolFeature-0" transform="matrix(1.6129032373428345,0,0,1.6129032373428345,-1.6129032258064515,-1.6129032258064515)" fill="#3ccf91"><g xmlns="http://www.w3.org/2000/svg"><path d="M59.421,26.348c-0.716-3.493-2.07-6.764-4.034-9.739l1.919-3.144l-6.771-6.771l-3.144,1.919   c-2.976-1.964-6.246-3.318-9.739-4.034L36.787,1h-9.574l-0.865,3.579c-3.493,0.716-6.764,2.07-9.739,4.034l-3.144-1.919   l-6.771,6.771l1.919,3.144c-1.964,2.976-3.318,6.246-4.034,9.739L1,27.213v9.574l3.579,0.865c0.716,3.493,2.07,6.764,4.034,9.739   l-1.919,3.144l6.771,6.771l3.144-1.919c2.976,1.964,6.246,3.318,9.739,4.034L27.213,63h9.574l0.865-3.579   c3.493-0.716,6.764-2.07,9.739-4.034l3.144,1.919l6.771-6.771l-1.919-3.144c1.964-2.976,3.318-6.246,4.034-9.739L63,36.787v-9.574   L59.421,26.348z M61,35.213l-3.308,0.8l-0.116,0.642c-0.663,3.666-2.076,7.077-4.2,10.141l-0.37,0.534l1.772,2.905l-4.544,4.544   l-2.905-1.772l-0.534,0.37c-3.063,2.124-6.475,3.537-10.141,4.2l-0.642,0.116L35.213,61h-6.426l-0.8-3.308l-0.642-0.116   c-3.666-0.663-7.077-2.076-10.141-4.2l-0.534-0.37l-2.905,1.772l-4.544-4.544l1.772-2.905l-0.37-0.534   c-2.124-3.063-3.537-6.475-4.2-10.141l-0.116-0.642L3,35.213v-6.426l3.308-0.8l0.116-0.642c0.663-3.666,2.076-7.077,4.2-10.141   l0.37-0.534l-1.772-2.905l4.544-4.544l2.905,1.772l0.534-0.37c3.063-2.124,6.475-3.537,10.141-4.2l0.642-0.116L28.787,3h6.426   l0.8,3.308l0.642,0.116c3.666,0.663,7.077,2.076,10.141,4.2l0.534,0.37l2.905-1.772l4.544,4.544l-1.772,2.905l0.37,0.534   c2.124,3.063,3.537,6.475,4.2,10.141l0.116,0.642l3.308,0.8V35.213z"></path><rect x="31" y="5" width="2" height="2"></rect><rect x="12.615" y="12.615" transform="matrix(0.7071 -0.7071 0.7071 0.7071 -5.6396 13.6152)" width="2" height="2"></rect><rect x="5" y="31" width="2" height="2"></rect><rect x="12.615" y="49.385" transform="matrix(0.7071 -0.7071 0.7071 0.7071 -31.6396 24.3848)" width="2" height="2"></rect><rect x="31" y="57" width="2" height="2"></rect><rect x="49.385" y="49.385" transform="matrix(0.7071 -0.7071 0.7071 0.7071 -20.8701 50.3848)" width="2" height="2"></rect><rect x="57" y="31" width="2" height="2"></rect><rect x="49.385" y="12.615" transform="matrix(0.7071 -0.7071 0.7071 0.7071 5.1299 39.6152)" width="2" height="2"></rect><path d="M32,9C19.317,9,9,19.317,9,32s10.317,23,23,23s23-10.317,23-23S44.683,9,32,9z M32,53c-11.579,0-21-9.421-21-21   s9.421-21,21-21s21,9.421,21,21S43.579,53,32,53z"></path><path d="M41,29.184V24c0-4.963-4.037-9-9-9s-9,4.037-9,9v5.184c-1.161,0.414-2,1.514-2,2.816v6c0,6.065,4.935,11,11,11   s11-4.935,11-11v-6C43,30.698,42.161,29.598,41,29.184z M32,17c3.859,0,7,3.141,7,7v5h-2v-5c0-2.757-2.243-5-5-5s-5,2.243-5,5v5h-2   v-5C25,20.141,28.141,17,32,17z M35,29h-6v-5c0-1.654,1.346-3,3-3s3,1.346,3,3V29z M41,38c0,4.963-4.037,9-9,9s-9-4.037-9-9v-6   c0-0.552,0.448-1,1-1h16c0.552,0,1,0.448,1,1V38z"></path><path d="M32,33c-2.206,0-4,1.794-4,4c0,1.859,1.279,3.411,3,3.858V45h2v-4.142c1.721-0.447,3-1.999,3-3.858   C36,34.794,34.206,33,32,33z M32,39c-1.103,0-2-0.897-2-2s0.897-2,2-2s2,0.897,2,2S33.103,39,32,39z"></path></g></g><g id="SvgjsG1757" featureKey="textGroupContainer" transform="matrix(1,0,0,1,355,26)" fill="#ffffff"><rect xmlns="http://www.w3.org/2000/svg" y="0" height="1" width="1" opacity="0"></rect><rect xmlns="http://www.w3.org/2000/svg" y="0" x="-235" width="3" height="48"></rect></g><g id="SvgjsG1758" featureKey="vMvB0T-0" transform="matrix(1.6957775354385376,0,0,1.6957775354385376,135.42241765797905,27.757504092212038)" fill="#ffffff"><path d="M6.3 15.719999999999999 l-1.58 0 l0 4.28 q-0.64 0.12 -1.6 0.12 q-0.98 0 -1.6 -0.12 l0 -13.56 l0.14 -0.14 q1.74 -0.04 2.89 -0.06 t1.75 -0.02 q1.1 0 2.01 0.3 t1.55 0.9 t0.99 1.49 t0.35 2.05 t-0.36 2.05 t-1 1.49 t-1.55 0.91 t-1.99 0.31 z M4.72 8.66 l0 4.66 q0.56 -0.02 0.89 -0.03 t0.43 -0.01 q0.54 0 0.9 -0.19 t0.58 -0.5 t0.32 -0.73 t0.1 -0.88 q0 -0.44 -0.1 -0.86 t-0.31 -0.74 t-0.55 -0.51 t-0.8 -0.19 l-0.82 0 t-0.64 -0.02 z M23.1 10.56 q0 0.66 -0.2 1.25 t-0.53 1.06 t-0.78 0.82 t-0.93 0.53 q1.04 0.38 1.54 1.84 l0.6 1.7 q0.34 1 1 1.48 q-0.3 0.4 -0.9 0.67 t-1.32 0.27 t-1.12 -0.41 t-0.74 -1.43 l-0.72 -2.1 q-0.22 -0.6 -0.59 -0.92 t-1.11 -0.32 l-0.82 0 l0 5 q-0.64 0.12 -1.6 0.12 t-1.58 -0.12 l0 -13.56 l0.14 -0.14 q1.74 -0.04 2.93 -0.06 t1.87 -0.02 q1.1 0 2 0.27 t1.53 0.81 t0.98 1.36 t0.35 1.9 z M16.48 8.62 l0 3.92 q0.9 0 1.54 -0.03 t1.03 -0.24 t0.59 -0.59 t0.2 -1.1 q0 -1.94 -1.88 -1.94 l-0.83 0 t-0.65 -0.02 z M28.299999999999997 16.28 q0.54 1.56 2.18 1.56 q0.82 0 1.33 -0.41 t0.8 -1.04 t0.39 -1.41 t0.1 -1.54 q0 -0.7 -0.05 -1.56 t-0.29 -1.61 t-0.76 -1.26 t-1.52 -0.51 q-0.96 0 -1.47 0.49 t-0.76 1.21 t-0.31 1.53 t-0.06 1.43 q0 0.92 0.09 1.64 t0.33 1.48 z M26.679999999999996 19.04 q-2.14 -1.78 -2.14 -5.86 q0 -1.76 0.41 -3.09 t1.18 -2.23 t1.87 -1.36 t2.48 -0.46 t2.49 0.46 t1.88 1.37 t1.18 2.24 t0.41 3.07 t-0.41 3.07 t-1.18 2.23 t-1.88 1.36 t-2.49 0.46 q-2.28 0 -3.8 -1.26 z M43.459999999999994 15.719999999999999 l-1.58 0 l0 4.28 q-0.64 0.12 -1.6 0.12 q-0.98 0 -1.6 -0.12 l0 -13.56 l0.14 -0.14 q1.74 -0.04 2.89 -0.06 t1.75 -0.02 q1.1 0 2.01 0.3 t1.55 0.9 t0.99 1.49 t0.35 2.05 t-0.36 2.05 t-1 1.49 t-1.55 0.91 t-1.99 0.31 z M41.879999999999995 8.66 l0 4.66 q0.56 -0.02 0.89 -0.03 t0.43 -0.01 q0.54 0 0.9 -0.19 t0.58 -0.5 t0.32 -0.73 t0.1 -0.88 q0 -0.44 -0.1 -0.86 t-0.31 -0.74 t-0.55 -0.51 t-0.8 -0.19 l-0.82 0 t-0.64 -0.02 z M53.599999999999994 15.96 l-0.02 1.44 l0 0.02 q0.92 -0.04 1.48 -0.04 l4.64 0 q0 0.74 -0.06 1.14 q-0.24 1.54 -2.04 1.54 l-5.32 0 q-0.86 0 -1.35 -0.5 t-0.49 -1.36 l0 -11.72 l0.14 -0.14 l8.62 0 q0.12 0.58 0.12 1.26 t-0.28 1.42 l-5.46 0 l0.02 1.44 l0 1.4 q0.52 -0.02 1.36 -0.02 l3.06 0 q0.18 0.56 0.18 1.28 t-0.18 1.32 l-4.42 0 l0 1.52 z M66.98 17.3 l3.46 0 q0 0.8 -0.1 1.37 t-0.64 0.98 t-1.42 0.41 l-4.52 0 q-0.86 0 -1.36 -0.5 t-0.5 -1.36 l0 -11.86 l0.14 -0.14 l1.18 0 q1.88 0 1.88 2.04 l0 9.14 q0.88 -0.08 1.88 -0.08 z M75.68 17.14 q-0.54 0 -0.8 -0.02 l-0.86 2.9 q-0.48 0.12 -1.34 0.12 q-0.96 0 -1.56 -0.22 l-0.1 -0.16 l4.4 -13.42 q0.78 -0.12 1.82 -0.12 q1.18 0 1.88 0.14 l4.32 13.44 q-0.7 0.38 -1.58 0.38 q-1.04 0 -1.46 -0.36 t-0.72 -1.38 l-0.38 -1.32 q-0.26 0.02 -0.78 0.02 l-2.84 0 z M75.62 14.620000000000001 l0.8 -0.02 l1.46 0 q0.1 0 0.35 0.01 t0.37 0.01 l-0.34 -1.24 q-0.48 -1.68 -1.1 -4.12 l-0.12 0 q-0.16 0.86 -0.96 3.82 z M95.74000000000001 6.34 l0 8.62 q0 2.56 -1.4 3.95 t-4 1.39 t-4.01 -1.39 t-1.41 -3.95 l0 -8.62 l0.14 -0.14 l1.18 0 q1.9 0 1.9 2.04 l0 6.76 q0 1.4 0.5 2.08 t1.7 0.68 t1.7 -0.68 t0.5 -2.08 l0 -8.66 q0.62 -0.12 1.6 -0.12 q0.96 0 1.6 0.12 z M103.76 8.98 l0.02 1.48 l0 9.54 q-0.68 0.12 -1.62 0.12 t-1.58 -0.12 l0 -11.02 l-1.28 0.02 l-2.06 0 q-0.12 -0.58 -0.12 -1.33 t0.12 -1.33 l9.9 0 q0.16 0.52 0.16 1.26 t-0.4 1.07 t-1.28 0.33 l-0.58 0 l-1.26 -0.02 l-0.02 0 z M116.28 11.64 l-0.02 -1.48 l0 -3.82 q0.62 -0.12 1.61 -0.12 t1.59 0.12 l0 13.66 q-0.64 0.12 -1.6 0.12 t-1.6 -0.12 l0 -4.24 l0.02 -1.48 l-1 0.02 l-2.32 0 l-1 -0.02 l0.02 1.48 l0 4.24 q-0.62 0.12 -1.6 0.12 t-1.6 -0.12 l0 -13.66 q0.62 -0.12 1.6 -0.12 t1.6 0.12 l0 3.82 l-0.02 1.48 l1 -0.02 l2.32 0 z"></path></g>
			</g>
		</svg>
	
